<svg width="304" height="64" viewBox="0 0 304 64" fill="none" xmlns="http://www.w3.org/2000/svg">
<g clip-path="url(#clip0_529_5554)">
<path d="M63.9055 60.8325V7.34472V7.44154C62.2754 10.4569 54.0006 25.7964 50.8094 31.1355L49.649 33.0581L49.5385 33.2103C50.855 36.7506 51.5287 40.498 51.5278 44.2758V64H60.7972C61.6339 63.9963 62.435 63.661 63.0253 63.0674C63.6155 62.4738 63.9469 61.6702 63.9469 60.8325H63.9055ZM58.3383 0.0968229L57.9791 0.774584C57.9791 0.774584 48.6958 17.8154 45.187 23.9429L44.9797 24.3026L44.7863 24.6484C41.8251 20.8211 38.0257 17.7258 33.681 15.601C29.3362 13.4763 24.5622 12.3789 19.727 12.3933H0V3.15366C0 2.31726 0.331841 1.51511 0.922522 0.923686C1.5132 0.33226 2.31434 0 3.14969 0H58.4074L58.3383 0.0968229Z" fill="#669AD2"/>
<path d="M44.8416 24.5379C41.8577 20.7141 38.0424 17.6217 33.6858 15.4958C29.3292 13.3698 24.5458 12.2663 19.6994 12.269H0V31.9933C0.00731019 40.4774 3.37566 48.6121 9.36598 54.6126C15.3563 60.6131 23.4793 63.9892 31.9527 64.0002H51.6659V44.2621C51.6653 40.4211 50.9727 36.6117 49.6214 33.0168C47.2315 36.9036 45.035 40.2094 42.7142 43.3907C40.2597 46.6765 37.1562 49.4215 33.5967 51.4547C31.3856 52.8286 28.8488 53.5877 26.2474 53.654C24.8789 53.6518 23.522 53.4035 22.2412 52.9209C15.1406 50.2237 11.5489 41.3851 10.3332 37.7058C10.1525 37.2074 10.0776 36.6767 10.1131 36.1477C10.1486 35.6186 10.2938 35.1027 10.5395 34.633C10.7851 34.1632 11.1258 33.7498 11.5398 33.4192C11.9538 33.0885 12.4321 32.8479 12.9441 32.7125C13.434 32.5175 13.959 32.4262 14.4859 32.4446C15.0129 32.463 15.5302 32.5907 16.0054 32.8194C16.4805 33.0482 16.9031 33.3732 17.2465 33.7738C17.5898 34.1744 17.8465 34.642 18.0002 35.1469C19.3816 39.1582 20.9979 43.5429 24.12 44.9399C24.8997 45.2507 25.7367 45.3917 26.5751 45.3535C27.4135 45.3154 28.2342 45.0989 28.9826 44.7186C30.8292 43.8146 32.5216 42.6242 33.9973 41.1915C35.761 39.3515 37.3005 37.3085 38.5837 35.1054C40.5177 31.9656 42.5484 28.5353 44.814 24.5932V24.4826" fill="#F58220"/>
<path d="M44.6067 24.7314L44.8416 24.5377C44.8953 24.4641 44.9415 24.3853 44.9797 24.3026C41.9716 20.4614 38.1293 17.3565 33.7443 15.2236C29.3593 13.0906 24.5468 11.9856 19.6717 11.9922H0V12.5455H19.6994C24.495 12.5429 29.228 13.6369 33.5373 15.7439C37.8466 17.8509 41.6185 20.9154 44.5653 24.7037" fill="#3A5C7F"/>
<path d="M49.6211 33.0306C49.5487 33.1267 49.484 33.2285 49.4277 33.3349C50.7103 36.8251 51.3651 40.5154 51.3617 44.2344V64.0001H52.011V44.262C52.0143 40.3879 51.317 36.5452 49.9527 32.9199L49.6211 33.0306Z" fill="#3A5C7F"/>
<path d="M45.1878 23.9429L44.9805 24.3026L44.7871 24.6484C42.5216 28.5904 40.4909 32.0207 38.5568 35.1606C37.2737 37.3637 35.7342 39.4066 33.9705 41.2466C32.4948 42.6793 30.8024 43.8697 28.9558 44.7737C28.2074 45.1541 27.3867 45.3705 26.5483 45.4087C25.7099 45.4468 24.8729 45.3058 24.0931 44.995C20.9711 43.6118 19.2995 39.2133 17.9734 35.2021C17.8197 34.6971 17.563 34.2295 17.2197 33.8289C16.8763 33.4283 16.4537 33.1034 15.9786 32.8746C15.5034 32.6458 14.986 32.5182 14.4591 32.4998C13.9322 32.4814 13.4072 32.5726 12.9173 32.7677C12.4053 32.9027 11.9272 33.1433 11.5136 33.4742C11.1 33.8051 10.76 34.2189 10.5155 34.689C10.2709 35.1592 10.1272 35.6753 10.0936 36.2043C10.06 36.7334 10.1372 37.2636 10.3202 37.761C11.522 41.4264 15.1138 50.2096 22.2144 52.976C23.4952 53.4586 24.8521 53.7069 26.2206 53.7091C28.8223 53.6449 31.3596 52.8856 33.5698 51.5098C37.1324 49.4808 40.2367 46.7352 42.6873 43.4459C45.022 40.2645 47.2185 36.9587 49.5946 33.072L50.755 31.1493C53.9461 25.8102 62.2209 10.4707 63.851 7.45537V7.35855V3.20899C63.8584 2.36761 63.5326 1.55757 62.9449 0.956157C62.3572 0.354743 61.5554 0.0109425 60.7152 0H58.3667L58.0075 0.677761C58.0075 0.677761 48.6966 17.8154 45.1878 23.9429Z" fill="white"/>
<path d="M274.672 55.8944C275.017 56.3324 275.206 56.8724 275.211 57.4298V57.5266H271.412C271.456 56.9344 271.688 56.3718 272.075 55.9221C272.241 55.7392 272.444 55.594 272.67 55.4962C272.897 55.3984 273.141 55.3502 273.388 55.355C273.628 55.3443 273.868 55.3871 274.091 55.4804C274.313 55.5736 274.511 55.7151 274.672 55.8944ZM276.413 60.6941L275.612 60.0717C275.392 60.3766 275.109 60.6312 274.783 60.8186C274.429 61.0169 274.028 61.1127 273.623 61.0952C273.323 61.1063 273.025 61.05 272.75 60.9303C272.475 60.8106 272.23 60.6306 272.034 60.4036C271.591 59.9057 271.354 59.258 271.371 58.5916H276.51V58.0522C276.573 57.0604 276.279 56.0788 275.681 55.2858C275.402 54.9536 275.05 54.6916 274.651 54.521C274.253 54.3504 273.82 54.276 273.388 54.3038C272.794 54.3002 272.212 54.4735 271.716 54.8017C271.189 55.1393 270.768 55.6186 270.501 56.1849C270.21 56.8132 270.064 57.4984 270.072 58.1905V58.4395C270.044 58.9416 270.114 59.4445 270.28 59.9193C270.446 60.394 270.704 60.8313 271.039 61.2059C271.364 61.5419 271.755 61.8056 272.189 61.9796C272.622 62.1536 273.087 62.234 273.554 62.2156C274.117 62.2477 274.679 62.1287 275.182 61.871C275.685 61.6133 276.11 61.2262 276.413 60.7494V60.6941ZM267.088 60.8601C266.734 61.0694 266.325 61.1703 265.914 61.1505C265.456 61.1749 265.003 61.0433 264.629 60.7771C264.472 60.6527 264.343 60.4955 264.253 60.3163C264.162 60.1372 264.112 59.9404 264.104 59.7397H262.806C262.808 60.1861 262.948 60.6211 263.207 60.9846C263.485 61.379 263.861 61.6937 264.298 61.8975C264.808 62.1156 265.359 62.224 265.914 62.2156C266.666 62.2467 267.407 62.0332 268.028 61.607C268.284 61.4206 268.49 61.1745 268.63 60.8901C268.77 60.6058 268.838 60.2916 268.829 59.9748C268.842 59.6073 268.741 59.2447 268.539 58.9374C268.312 58.6211 268.007 58.3687 267.655 58.2043C267.172 57.9571 266.662 57.7668 266.135 57.6372C265.655 57.5535 265.189 57.3997 264.754 57.1808C264.635 57.106 264.539 57.0016 264.473 56.8778C264.408 56.7541 264.376 56.6153 264.381 56.4754C264.378 56.3173 264.413 56.1608 264.483 56.0189C264.552 55.877 264.655 55.7537 264.781 55.6593C265.108 55.4425 265.495 55.3358 265.887 55.355C266.299 55.3383 266.703 55.4764 267.019 55.7423C267.159 55.8504 267.272 55.9886 267.351 56.1466C267.43 56.3047 267.473 56.4785 267.475 56.6552H268.774C268.781 56.3288 268.713 56.0051 268.574 55.7098C268.435 55.4145 268.229 55.1557 267.973 54.9539C267.379 54.49 266.639 54.2544 265.887 54.2899C265.159 54.2622 264.445 54.4924 263.87 54.94C263.625 55.1233 263.426 55.3612 263.289 55.635C263.153 55.9088 263.082 56.2108 263.082 56.5169C263.076 56.8599 263.173 57.1969 263.359 57.4851C263.585 57.781 263.878 58.0182 264.215 58.1767C264.71 58.4174 265.235 58.5895 265.776 58.6885C266.265 58.7615 266.734 58.9308 267.157 59.1864C267.286 59.2792 267.39 59.4021 267.459 59.5444C267.529 59.6867 267.563 59.844 267.558 60.0025C267.559 60.1644 267.517 60.3237 267.437 60.4645C267.357 60.6052 267.242 60.7226 267.102 60.8047L267.088 60.8601ZM261.991 54.3868C261.807 54.3105 261.609 54.2773 261.411 54.2899C261.045 54.283 260.684 54.3743 260.366 54.5543C260.048 54.7343 259.784 54.9965 259.601 55.3135V54.4283H258.344V62.0219H259.629V56.6275C259.764 56.284 260.007 55.9935 260.32 55.7991C260.634 55.6047 261.002 55.5169 261.369 55.5486C261.581 55.534 261.793 55.534 262.005 55.5486L261.991 54.3868ZM255.084 62.0219H256.327V54.4283H255.084V59.961C254.912 60.3298 254.629 60.6352 254.274 60.8339C253.92 61.0325 253.512 61.1143 253.108 61.0675C252.169 61.0675 251.727 60.5004 251.727 59.3524V54.4283H250.442V59.3662C250.384 60.1176 250.611 60.8632 251.077 61.4548C251.317 61.6996 251.606 61.8894 251.926 62.0112C252.245 62.133 252.587 62.1838 252.929 62.1603C253.34 62.187 253.751 62.1214 254.134 61.9682C254.516 61.8151 254.86 61.5782 255.139 61.275L255.084 62.0219ZM243.797 56.1157C243.992 55.8791 244.24 55.6927 244.521 55.5723C244.802 55.4519 245.108 55.4011 245.414 55.4241C245.719 55.4152 246.022 55.4811 246.297 55.6161C246.571 55.751 246.809 55.9511 246.988 56.1987C247.408 56.7858 247.617 57.4973 247.582 58.2182C247.631 58.986 247.427 59.7486 247.002 60.3898C246.826 60.6381 246.592 60.8389 246.319 60.9741C246.047 61.1093 245.745 61.1747 245.441 61.1644C245.137 61.1761 244.834 61.1129 244.559 60.9802C244.285 60.8476 244.047 60.6496 243.866 60.4036C243.456 59.8129 243.252 59.1029 243.286 58.3842C243.237 57.6075 243.44 56.8358 243.866 56.1849L243.797 56.1157ZM241.946 58.1905C241.905 59.2233 242.249 60.2344 242.913 61.026C243.224 61.3802 243.61 61.6607 244.042 61.8472C244.475 62.0338 244.943 62.1219 245.414 62.1049C246.05 62.1143 246.676 61.9467 247.223 61.6208C247.751 61.2878 248.169 60.8068 248.425 60.2376C248.72 59.6209 248.867 58.9435 248.853 58.2597V58.1905C248.882 57.1831 248.543 56.1998 247.9 55.4241C247.587 55.0697 247.198 54.7892 246.764 54.6026C246.329 54.4161 245.859 54.3282 245.386 54.3453C244.759 54.3381 244.142 54.5057 243.604 54.8294C243.074 55.164 242.652 55.6442 242.388 56.2126C242.09 56.8385 241.938 57.5246 241.946 58.2182V58.1905ZM239.183 58.73C239.143 59.3959 238.863 60.0247 238.396 60.5004C237.896 60.8625 237.285 61.0386 236.669 60.9984C236.29 61.0149 235.912 60.9332 235.573 60.7611C235.235 60.5891 234.946 60.3326 234.735 60.0163C234.232 59.2306 233.991 58.3059 234.044 57.3744V56.3785C233.968 55.4 234.226 54.4245 234.776 53.6122C235.011 53.3017 235.316 53.0527 235.668 52.8865C236.019 52.7203 236.405 52.6418 236.793 52.6578C237.088 52.6377 237.384 52.6763 237.664 52.7712C237.943 52.8662 238.202 53.0157 238.423 53.2111C238.872 53.6968 239.14 54.3217 239.183 54.9815H240.565C240.514 54.0274 240.105 53.1278 239.418 52.4641C238.704 51.8331 237.772 51.5057 236.821 51.5512C236.062 51.5358 235.315 51.7373 234.666 52.1322C234.032 52.533 233.528 53.1096 233.215 53.792C232.871 54.5806 232.701 55.4348 232.718 56.2956V57.2776C232.65 58.529 233.038 59.7627 233.809 60.7494C234.157 61.175 234.599 61.514 235.1 61.7396C235.601 61.9652 236.148 62.0713 236.697 62.0496C237.669 62.1003 238.625 61.7844 239.377 61.1644C240.076 60.5167 240.501 59.626 240.565 58.6746L239.183 58.73ZM226.819 55.8391C227.165 56.2757 227.35 56.8176 227.344 57.3744V57.4713H223.545C223.589 56.879 223.821 56.3165 224.208 55.8668C224.382 55.6756 224.596 55.5255 224.835 55.4274C225.074 55.3293 225.332 55.2857 225.59 55.2997C225.833 55.2878 226.075 55.3301 226.3 55.4234C226.524 55.5167 226.725 55.6586 226.888 55.8391H226.819ZM228.615 60.6388L227.828 60.0163C227.599 60.3187 227.313 60.5726 226.985 60.7632C226.631 60.9615 226.23 61.0573 225.825 61.0399C225.525 61.051 225.227 60.9946 224.952 60.8749C224.677 60.7552 224.432 60.5753 224.236 60.3483C223.805 59.8436 223.57 59.2004 223.573 58.5363H228.712V58.0522C228.779 57.0622 228.49 56.0807 227.897 55.2858C227.612 54.9575 227.256 54.6983 226.857 54.5282C226.457 54.358 226.024 54.2813 225.59 54.3038C224.996 54.3027 224.415 54.4758 223.918 54.8017C223.399 55.144 222.983 55.6224 222.716 56.1849C222.42 56.811 222.273 57.4977 222.288 58.1905V58.4395C222.256 58.9419 222.326 59.4457 222.492 59.9208C222.658 60.396 222.917 60.833 223.255 61.2059C223.577 61.5423 223.966 61.8063 224.397 61.9804C224.828 62.1545 225.291 62.2347 225.756 62.2156C226.319 62.2477 226.882 62.1287 227.384 61.871C227.887 61.6133 228.312 61.2262 228.615 60.7494V60.6388ZM219.843 62.1326V55.4241H221.459V54.4144H219.843V53.626C219.825 53.4364 219.847 53.2452 219.906 53.0643C219.966 52.8834 220.062 52.7168 220.188 52.5748C220.313 52.4465 220.464 52.3468 220.631 52.2824C220.798 52.2179 220.977 52.1903 221.155 52.2013C221.389 52.1727 221.626 52.1727 221.86 52.2013L221.929 51.2746C221.637 51.1916 221.335 51.1497 221.031 51.1501C220.695 51.1294 220.358 51.1789 220.041 51.2956C219.725 51.4123 219.436 51.5935 219.194 51.8279C218.967 52.083 218.793 52.3805 218.681 52.7034C218.57 53.0263 218.523 53.368 218.545 53.709V54.4836H217.343V55.4241H218.545V62.0081L219.843 62.1326ZM214.773 53.0589C214.847 53.1318 214.936 53.188 215.034 53.2237C215.132 53.2595 215.236 53.274 215.34 53.2664C215.445 53.2726 215.551 53.2575 215.651 53.2218C215.75 53.1862 215.842 53.1308 215.92 53.0589C216.047 52.914 216.116 52.7265 216.113 52.5333C216.117 52.3358 216.048 52.1437 215.92 51.9938C215.843 51.9195 215.752 51.8616 215.652 51.8235C215.553 51.7855 215.446 51.7681 215.34 51.7725C215.238 51.7665 215.137 51.782 215.042 51.8181C214.947 51.8542 214.861 51.91 214.789 51.9819C214.717 52.0538 214.661 52.1401 214.625 52.2352C214.589 52.3302 214.574 52.4318 214.58 52.5333C214.574 52.6295 214.589 52.7257 214.622 52.8161C214.655 52.9065 214.707 52.9892 214.773 53.0589ZM215.975 54.5389H214.676V62.1326H215.975V54.5389ZM208.419 51.9109H207.037V62.1326H213.226V60.9569H208.391L208.419 51.9109ZM200.848 56.0604C201.182 56.503 201.366 57.041 201.373 57.5957V57.6926H197.574C197.618 57.1003 197.85 56.5378 198.237 56.0881C198.411 55.8969 198.625 55.7468 198.864 55.6487C199.103 55.5506 199.361 55.507 199.619 55.521C199.861 55.5101 200.104 55.5528 200.328 55.646C200.552 55.7392 200.754 55.8807 200.917 56.0604H200.848ZM202.589 60.6941L201.788 60.0717C201.567 60.3766 201.285 60.6312 200.959 60.8186C200.605 61.0169 200.203 61.1127 199.798 61.0952C199.499 61.1063 199.2 61.05 198.926 60.9303C198.651 60.8106 198.406 60.6306 198.21 60.4036C197.767 59.9057 197.53 59.258 197.547 58.5916H202.686V58.0522C202.753 57.0622 202.464 56.0807 201.871 55.2858C201.586 54.9575 201.23 54.6983 200.83 54.5282C200.43 54.358 199.997 54.2813 199.564 54.3038C198.97 54.3027 198.389 54.4758 197.892 54.8017C197.366 55.1359 196.948 55.6166 196.69 56.1849C196.384 56.8087 196.228 57.4955 196.234 58.1905V58.4395C196.205 58.9416 196.276 59.4445 196.442 59.9193C196.608 60.394 196.866 60.8313 197.201 61.2059C197.526 61.5419 197.917 61.8056 198.351 61.9796C198.784 62.1536 199.249 62.234 199.715 62.2156C200.287 62.2445 200.855 62.1184 201.361 61.8506C201.867 61.5828 202.291 61.1832 202.589 60.6941ZM190.004 51.2746H188.774V62.0496H190.073V56.6137C190.239 56.2579 190.497 55.9525 190.819 55.7284C191.143 55.5036 191.53 55.3874 191.924 55.3965C192.132 55.379 192.34 55.4043 192.538 55.4709C192.735 55.5375 192.916 55.644 193.071 55.7838C193.346 56.1266 193.48 56.5624 193.444 57.001V62.0219H194.742V57.001C194.742 55.189 193.913 54.2346 192.311 54.2346C191.881 54.2254 191.455 54.3169 191.066 54.5018C190.678 54.6868 190.337 54.9599 190.073 55.2997L190.004 51.2746ZM184.63 52.6578V54.4974H183.249V55.4241H184.63V60.127C184.597 60.6616 184.753 61.1907 185.072 61.6208C185.238 61.8014 185.441 61.9425 185.669 62.0335C185.896 62.1244 186.14 62.1631 186.385 62.1464C186.721 62.1461 187.056 62.0996 187.379 62.0081V60.9569C187.175 61.0048 186.967 61.0326 186.758 61.0399C186.64 61.0524 186.521 61.0392 186.409 61.0009C186.296 60.9627 186.194 60.9005 186.108 60.8186C185.973 60.6147 185.909 60.3711 185.929 60.127V55.4241H187.31V54.4144H185.929V52.6578H184.63ZM180.279 54.4559C180.1 54.3793 179.906 54.3461 179.712 54.3591C179.346 54.3492 178.984 54.4392 178.666 54.6195C178.347 54.7998 178.083 55.0636 177.903 55.3827V54.4974H176.632V62.0911H177.93V56.6967C178.065 56.3556 178.305 56.0668 178.616 55.8726C178.927 55.6784 179.292 55.5891 179.657 55.6178C179.868 55.6027 180.081 55.6027 180.292 55.6178L180.279 54.4559ZM173.261 55.9636C173.605 56.4015 173.795 56.9415 173.8 57.4989V57.5957H169.987C170.03 57.0035 170.263 56.441 170.65 55.9913C170.823 55.7993 171.037 55.6486 171.276 55.5505C171.515 55.4523 171.773 55.4092 172.031 55.4241C172.272 55.4134 172.512 55.4562 172.734 55.5495C172.956 55.6428 173.155 55.7842 173.316 55.9636H173.261ZM174.96 60.6941L174.159 60.0717C173.938 60.3766 173.656 60.6312 173.33 60.8186C172.976 61.0169 172.574 61.1127 172.17 61.0952C171.868 61.1045 171.568 61.0474 171.291 60.9279C171.015 60.8083 170.767 60.6294 170.567 60.4036C170.134 59.9008 169.903 59.2552 169.918 58.5916H175.057V58.0522C175.12 57.0604 174.826 56.0788 174.228 55.2858C173.949 54.9536 173.597 54.6916 173.198 54.521C172.8 54.3504 172.367 54.276 171.935 54.3038C171.341 54.3002 170.759 54.4735 170.263 54.8017C169.736 55.1393 169.315 55.6186 169.047 56.1849C168.751 56.811 168.604 57.4977 168.619 58.1905V58.4395C168.587 58.9419 168.657 59.4457 168.823 59.9208C168.989 60.396 169.248 60.833 169.586 61.2059C169.911 61.5419 170.302 61.8056 170.736 61.9796C171.169 62.1536 171.634 62.234 172.1 62.2156C172.669 62.2405 173.234 62.1125 173.737 61.845C174.24 61.5775 174.662 61.1801 174.96 60.6941ZM162.859 54.4283H161.477L164.24 62.0219H165.29L168.053 54.4283H166.671L164.793 60.2653L162.859 54.4283ZM155.951 56.1157C156.132 55.8762 156.365 55.6824 156.634 55.5503C156.903 55.4181 157.199 55.3512 157.499 55.355C157.804 55.346 158.107 55.4119 158.382 55.5469C158.656 55.6819 158.894 55.8819 159.073 56.1296C159.493 56.7167 159.702 57.4281 159.667 58.149C159.716 58.9169 159.512 59.6795 159.087 60.3206C158.901 60.5592 158.663 60.7522 158.392 60.8849C158.12 61.0176 157.822 61.0866 157.519 61.0866C157.217 61.0866 156.919 61.0176 156.647 60.8849C156.375 60.7522 156.137 60.5592 155.951 60.3206C155.541 59.7299 155.337 59.02 155.371 58.3012C155.322 57.5245 155.525 56.7528 155.951 56.1019V56.1157ZM154.059 58.1905C154.006 59.2249 154.352 60.24 155.026 61.026C155.335 61.3791 155.718 61.659 156.148 61.8456C156.578 62.0322 157.044 62.1208 157.512 62.1049C158.149 62.1158 158.776 61.9481 159.322 61.6208C159.857 61.2925 160.281 60.8105 160.538 60.2376C160.833 59.6209 160.98 58.9435 160.966 58.2597V58.1905C161.015 57.1548 160.675 56.1384 160.013 55.3412C159.699 54.9875 159.31 54.7075 158.876 54.521C158.441 54.3345 157.971 54.2462 157.499 54.2623C156.871 54.2551 156.254 54.4228 155.717 54.7464C155.187 55.081 154.765 55.5612 154.501 56.1296C154.202 56.7555 154.051 57.4416 154.059 58.1352V58.1905ZM148.284 60.7494C147.93 60.9587 147.521 61.0597 147.11 61.0399C146.652 61.0643 146.199 60.9326 145.825 60.6664C145.668 60.542 145.539 60.3848 145.449 60.2057C145.358 60.0265 145.308 59.8297 145.3 59.629H144.002C144.004 60.0755 144.144 60.5104 144.403 60.8739C144.676 61.2725 145.054 61.5882 145.494 61.7868C146.004 62.005 146.555 62.1134 147.11 62.1049C147.858 62.1361 148.595 61.9224 149.21 61.4963C149.47 61.3132 149.681 61.0681 149.823 60.7832C149.965 60.4984 150.035 60.1825 150.025 59.8642C150.038 59.4966 149.937 59.134 149.735 58.8268C149.508 58.5105 149.203 58.258 148.851 58.0937C148.362 57.8865 147.853 57.7334 147.331 57.6372C146.851 57.5535 146.385 57.3997 145.95 57.1808C145.832 57.106 145.735 57.0016 145.669 56.8778C145.604 56.7541 145.572 56.6153 145.577 56.4754C145.572 56.3169 145.606 56.1596 145.675 56.0173C145.745 55.875 145.849 55.7521 145.977 55.6593C146.304 55.4425 146.691 55.3358 147.083 55.355C147.495 55.3383 147.899 55.4764 148.215 55.7423C148.355 55.8504 148.468 55.9886 148.547 56.1466C148.626 56.3047 148.669 56.4785 148.671 56.6552H149.97C149.977 56.3288 149.909 56.0051 149.77 55.7098C149.631 55.4145 149.425 55.1557 149.169 54.9539C148.574 54.4922 147.834 54.2569 147.083 54.2899C146.355 54.2622 145.641 54.4924 145.066 54.94C144.821 55.1233 144.622 55.3612 144.485 55.635C144.349 55.9088 144.278 56.2108 144.278 56.5169C144.272 56.8599 144.369 57.1969 144.555 57.4851C144.777 57.7842 145.072 58.0221 145.411 58.1767C145.905 58.4195 146.43 58.5918 146.972 58.6885C147.46 58.7639 147.929 58.933 148.353 59.1864C148.48 59.2799 148.582 59.4033 148.649 59.5457C148.717 59.6881 148.748 59.8451 148.74 60.0025C148.744 60.1634 148.705 60.3223 148.627 60.4632C148.549 60.6041 148.436 60.7219 148.298 60.8047L148.284 60.7494ZM141.101 55.8944C141.44 56.3342 141.625 56.874 141.626 57.4298V57.5266H137.827C137.87 56.9344 138.103 56.3718 138.49 55.9221C138.664 55.7309 138.878 55.5808 139.117 55.4827C139.356 55.3846 139.614 55.341 139.871 55.355C140.114 55.3441 140.356 55.3868 140.581 55.48C140.805 55.5733 141.006 55.7147 141.17 55.8944H141.101ZM142.897 60.6941L142.096 60.0717C141.875 60.3766 141.593 60.6312 141.267 60.8186C140.913 61.0169 140.511 61.1127 140.106 61.0952C139.807 61.1063 139.508 61.05 139.233 60.9303C138.958 60.8106 138.714 60.6306 138.518 60.4036C138.08 59.9029 137.843 59.2571 137.855 58.5916H142.993V58.0522C143.057 57.0604 142.763 56.0788 142.165 55.2858C141.886 54.9536 141.533 54.6916 141.135 54.521C140.737 54.3504 140.304 54.276 139.871 54.3038C139.278 54.3027 138.697 54.4758 138.2 54.8017C137.673 55.1359 137.256 55.6166 136.998 56.1849C136.697 56.8098 136.545 57.4966 136.556 58.1905V58.4395C136.527 58.9416 136.598 59.4445 136.764 59.9193C136.93 60.394 137.188 60.8313 137.523 61.2059C137.848 61.5412 138.24 61.8044 138.673 61.9783C139.106 62.1523 139.571 62.2331 140.037 62.2156C140.601 62.2477 141.163 62.1287 141.666 61.871C142.168 61.6133 142.593 61.2262 142.897 60.7494V60.6941ZM133.724 53.0036C133.798 53.0764 133.887 53.1326 133.985 53.1684C134.083 53.2042 134.187 53.2187 134.29 53.2111C134.396 53.2173 134.502 53.2021 134.602 53.1665C134.701 53.1308 134.793 53.0754 134.871 53.0036C134.998 52.8587 135.067 52.6712 135.064 52.478C135.068 52.2804 134.999 52.0884 134.871 51.9385C134.794 51.8642 134.703 51.8062 134.603 51.7682C134.503 51.7301 134.397 51.7128 134.29 51.7172C134.189 51.7112 134.088 51.7267 133.993 51.7628C133.898 51.7989 133.812 51.8547 133.74 51.9266C133.668 51.9985 133.612 52.0848 133.576 52.1798C133.54 52.2749 133.525 52.3765 133.531 52.478C133.525 52.5741 133.54 52.6704 133.573 52.7608C133.606 52.8512 133.658 52.9338 133.724 53.0036ZM134.926 54.4836H133.517V62.0773H134.898L134.926 54.4836ZM131.5 51.2746H130.201V62.0496H131.5V51.2746ZM126.927 52.9759C127.002 53.0488 127.091 53.105 127.188 53.1408C127.286 53.1765 127.39 53.1911 127.494 53.1834C127.6 53.1922 127.706 53.1782 127.806 53.1424C127.906 53.1066 127.998 53.0499 128.074 52.9759C128.202 52.831 128.271 52.6435 128.267 52.4503C128.271 52.2528 128.203 52.0607 128.074 51.9109C127.999 51.8344 127.908 51.7751 127.808 51.7369C127.708 51.6987 127.601 51.6826 127.494 51.6895C127.389 51.6837 127.284 51.7004 127.187 51.7386C127.089 51.7767 127 51.8355 126.927 51.9109C126.799 52.0607 126.73 52.2528 126.734 52.4503C126.731 52.6435 126.8 52.831 126.927 52.9759ZM128.143 54.4559H126.844V62.0496H128.143V54.4559ZM114.329 54.4559V62.0496H115.558V56.5169C115.691 56.1708 115.933 55.8772 116.247 55.6802C116.56 55.4832 116.93 55.3934 117.299 55.4241C117.523 55.3802 117.754 55.3927 117.973 55.4603C118.191 55.528 118.389 55.6488 118.549 55.8119C118.709 55.9749 118.826 56.1753 118.89 56.3948C118.954 56.6144 118.963 56.8465 118.915 57.0701V62.0496H120.214V56.9871C120.247 56.5445 120.444 56.1303 120.766 55.8253C121.097 55.5327 121.527 55.3791 121.968 55.3965C122.192 55.3722 122.418 55.3953 122.632 55.4644C122.846 55.5336 123.044 55.6471 123.211 55.7976C123.486 56.1411 123.619 56.5763 123.584 57.0148V62.0219H124.883V56.9318C124.883 55.1752 124.012 54.2899 122.341 54.2899C121.86 54.2854 121.386 54.3994 120.96 54.6219C120.571 54.8411 120.237 55.1433 119.979 55.5071C119.785 55.1061 119.474 54.7742 119.086 54.5565C118.698 54.3387 118.252 54.2457 117.81 54.2899C117.384 54.2687 116.96 54.3463 116.569 54.5167C116.178 54.687 115.832 54.9455 115.558 55.272V54.4283L114.329 54.4559ZM108.015 60.6803C107.878 60.5665 107.769 60.4223 107.697 60.259C107.625 60.0957 107.592 59.9179 107.601 59.7397C107.601 58.7991 108.402 58.3565 109.991 58.3565H110.999V59.9057C110.828 60.2529 110.553 60.5381 110.212 60.7217C109.862 60.9339 109.46 61.044 109.051 61.0399C108.675 61.0599 108.305 60.9363 108.015 60.6941V60.6803ZM112.56 62.0773V61.9666C112.364 61.4363 112.274 60.872 112.298 60.3068V56.8073C112.303 56.4679 112.237 56.1311 112.104 55.819C111.97 55.5068 111.773 55.2262 111.524 54.9954C110.945 54.5359 110.218 54.3046 109.48 54.3453C108.957 54.3365 108.439 54.4403 107.96 54.6496C107.527 54.8278 107.15 55.1192 106.869 55.4933C106.609 55.7989 106.463 56.1849 106.454 56.586H107.836C107.837 56.4173 107.881 56.2517 107.963 56.1043C108.045 55.9569 108.163 55.8324 108.305 55.7423C108.642 55.4991 109.051 55.3772 109.466 55.3965C109.683 55.3789 109.901 55.4053 110.108 55.4742C110.314 55.5432 110.505 55.6532 110.668 55.7976C110.804 55.9411 110.909 56.1106 110.978 56.296C111.047 56.4815 111.078 56.6789 111.068 56.8765V57.4713H109.811C108.915 57.4176 108.025 57.6501 107.269 58.1352C106.978 58.3425 106.744 58.6194 106.587 58.9407C106.43 59.262 106.356 59.6175 106.371 59.9748C106.366 60.2788 106.427 60.5802 106.551 60.8576C106.675 61.135 106.859 61.3815 107.09 61.5793C107.6 62.0166 108.256 62.244 108.927 62.2156C109.334 62.2183 109.737 62.1361 110.111 61.9741C110.484 61.8122 110.82 61.5741 111.096 61.275C111.109 61.5509 111.169 61.8224 111.276 62.0773H112.56ZM104.7 56.4615H100.362V52.9067H105.335V51.8002H99.0775V62.0219H100.459V57.5128H104.741L104.7 56.4615ZM89.6008 56.1849C89.7615 55.942 89.9818 55.7444 90.2406 55.6112C90.4994 55.478 90.7881 55.4136 91.0789 55.4241C91.4496 55.4058 91.8174 55.497 92.1368 55.6864C92.4561 55.8757 92.7127 56.1549 92.8748 56.4892V59.9748C92.718 60.3191 92.4618 60.6085 92.1393 60.8057C91.8167 61.0029 91.4426 61.0989 91.0651 61.0814C90.7805 61.0928 90.4976 61.033 90.242 60.9074C89.9863 60.7819 89.7659 60.5944 89.6008 60.3621C89.2114 59.7634 89.0227 59.056 89.062 58.3427C89.0082 57.5756 89.1967 56.8111 89.6008 56.1572V56.1849ZM87.7773 58.2873C87.7421 59.2756 88.0335 60.248 88.6061 61.0537C88.8494 61.3934 89.1713 61.669 89.5442 61.8569C89.9171 62.0448 90.33 62.1394 90.7474 62.1326C91.158 62.1527 91.5677 62.077 91.9441 61.9113C92.3205 61.7457 92.6533 61.4947 92.9162 61.1782V61.9943H94.1181V51.2746H92.8195V55.2305C92.5493 54.9213 92.2137 54.6762 91.8371 54.5131C91.4605 54.3499 91.0523 54.2729 90.6422 54.2874C90.2321 54.302 89.8304 54.4079 89.4663 54.5973C89.1021 54.7867 88.7847 55.055 88.5371 55.3827C87.9702 56.1906 87.6839 57.1624 87.722 58.149L87.7773 58.2873ZM80.2208 54.4559V62.0496H81.5193V56.6137C81.6857 56.2579 81.943 55.9525 82.2653 55.7284C82.5902 55.5053 82.9766 55.3893 83.3705 55.3965C83.578 55.3773 83.7873 55.4018 83.9848 55.4685C84.1822 55.5352 84.3636 55.6426 84.5171 55.7838C84.7928 56.1266 84.9263 56.5624 84.8901 57.001V62.0219H86.1886V57.001C86.1886 55.189 85.3598 54.2346 83.7573 54.2346C83.3202 54.2243 82.887 54.318 82.4931 54.5079C82.0993 54.6979 81.7561 54.9787 81.4917 55.3273V54.3729L80.2208 54.4559ZM73.9767 60.6803C73.841 60.5658 73.7341 60.4211 73.6645 60.2577C73.5949 60.0944 73.5646 59.9169 73.5761 59.7397C73.5761 58.7991 74.3635 58.3565 75.9521 58.3565H76.9744V59.9057C76.8016 60.2566 76.5207 60.5427 76.1732 60.7217C75.8287 60.9341 75.4311 61.0444 75.0266 61.0399C74.646 61.058 74.2722 60.9348 73.9767 60.6941V60.6803ZM78.5354 62.0773V61.9666C78.3333 61.4374 78.2394 60.873 78.2591 60.3068V56.8073C78.2669 56.4688 78.2033 56.1324 78.0724 55.8202C77.9414 55.5079 77.7462 55.2269 77.4994 54.9954C76.9369 54.5289 76.2266 54.2787 75.4963 54.2899C74.9738 54.2812 74.4556 54.385 73.9767 54.5942C73.5475 54.7786 73.1721 55.0689 72.8853 55.438C72.6354 55.7482 72.4946 56.1323 72.4847 56.5307H73.7833C73.7885 56.3627 73.8339 56.1984 73.9156 56.0516C73.9973 55.9048 74.113 55.7797 74.253 55.6869C74.5915 55.4476 74.9992 55.3261 75.4134 55.3412C75.6304 55.3227 75.8489 55.3488 76.0556 55.4178C76.2622 55.4867 76.4526 55.5971 76.6152 55.7423C76.7579 55.8815 76.8689 56.0501 76.9404 56.2363C77.0119 56.4225 77.0424 56.622 77.0297 56.8212V57.4159H75.7587C74.8666 57.3584 73.9798 57.5913 73.2307 58.0799C72.9378 58.2854 72.7018 58.562 72.5447 58.8837C72.3877 59.2055 72.3148 59.5618 72.3328 59.9195C72.3239 60.2239 72.384 60.5263 72.5084 60.8041C72.6328 61.082 72.8183 61.3281 73.0511 61.524C73.5603 61.9625 74.2174 62.19 74.8884 62.1603C75.293 62.161 75.6934 62.0779 76.0643 61.916C76.4353 61.7541 76.7686 61.517 77.0435 61.2197C77.0631 61.4946 77.1236 61.765 77.2231 62.0219L78.5354 62.0773Z" fill="#3A5C7F"/>
<path d="M298.046 38.2726V45.8663H299.29V40.458C299.45 40.1028 299.703 39.7972 300.022 39.5728C300.351 39.3477 300.742 39.2316 301.141 39.2408C301.346 39.2218 301.553 39.2465 301.748 39.3133C301.944 39.38 302.123 39.4873 302.274 39.6281C302.549 39.9709 302.683 40.4067 302.646 40.8453V45.8663H303.945V40.8453C303.945 39.0472 303.13 38.0789 301.528 38.0789C301.09 38.0686 300.657 38.1623 300.263 38.3523C299.87 38.5422 299.526 38.823 299.262 39.1717V38.2173L298.046 38.2726ZM294.689 39.7526C295.035 40.1838 295.22 40.7214 295.214 41.2741V41.3709H291.415C291.462 40.7835 291.694 40.2262 292.078 39.7803C292.243 39.5949 292.445 39.4471 292.672 39.3468C292.898 39.2466 293.143 39.1963 293.391 39.1993C293.635 39.1862 293.879 39.2292 294.104 39.3251C294.329 39.421 294.529 39.5672 294.689 39.7526ZM296.416 44.5384L295.629 43.9298C295.396 44.2246 295.11 44.4733 294.786 44.6629C294.434 44.8653 294.032 44.9659 293.626 44.9534C293.326 44.9616 293.029 44.9039 292.755 44.7844C292.48 44.6649 292.235 44.4865 292.037 44.2618C291.606 43.7571 291.371 43.1139 291.374 42.4498H296.527V41.8965C296.586 40.9074 296.297 39.9288 295.712 39.1302C295.427 38.8018 295.071 38.5427 294.671 38.3725C294.272 38.2024 293.838 38.1256 293.405 38.1481C292.811 38.147 292.23 38.3201 291.733 38.646C291.217 38.992 290.802 39.4694 290.531 40.0292C290.234 40.6602 290.088 41.3514 290.103 42.0487V42.2838C290.07 42.7864 290.138 43.2905 290.304 43.766C290.47 44.2414 290.731 44.6782 291.07 45.0502C291.391 45.3866 291.78 45.6506 292.212 45.8247C292.643 45.9988 293.106 46.079 293.57 46.0599C294.134 46.092 294.696 45.9731 295.199 45.7154C295.702 45.4577 296.126 45.0705 296.43 44.5937L296.416 44.5384ZM289.371 38.2864C289.185 38.2179 288.988 38.1851 288.791 38.1896C288.425 38.1797 288.063 38.2697 287.744 38.45C287.425 38.6303 287.161 38.8941 286.981 39.2131V38.2726H285.71V45.8663H287.009V40.4857C287.139 40.1407 287.378 39.8476 287.69 39.6505C288.001 39.4534 288.368 39.363 288.735 39.393C288.952 39.3783 289.168 39.3783 289.385 39.393L289.371 38.2864ZM279.176 40.0292C279.343 39.7951 279.566 39.6057 279.823 39.4779C280.081 39.3501 280.366 39.2876 280.654 39.2961C281.024 39.2814 281.39 39.374 281.709 39.563C282.028 39.752 282.285 40.0292 282.45 40.3612V43.8468C282.293 44.1911 282.037 44.4805 281.714 44.6777C281.392 44.8749 281.018 44.9709 280.64 44.9534C280.356 44.9648 280.073 44.905 279.817 44.7794C279.561 44.6539 279.341 44.4664 279.176 44.2341C278.789 43.6346 278.605 42.9267 278.651 42.2147C278.593 41.4491 278.777 40.6847 279.176 40.0292ZM277.352 42.1593C277.317 43.1476 277.609 44.12 278.181 44.9257C278.424 45.2654 278.746 45.541 279.119 45.7289C279.492 45.9168 279.905 46.0114 280.322 46.0046C280.733 46.0247 281.143 45.949 281.519 45.7833C281.896 45.6177 282.228 45.3667 282.491 45.0502V45.8663H283.693V35.0913H282.395V39.0472C282.124 38.7379 281.789 38.4929 281.412 38.3297C281.036 38.1666 280.627 38.0895 280.217 38.1041C279.807 38.1187 279.405 38.2245 279.041 38.414C278.677 38.6034 278.36 38.8717 278.112 39.1993C277.545 40.0072 277.259 40.9791 277.297 41.9657L277.352 42.1593ZM275.667 35.1466H274.424V45.9216H275.722L275.667 35.1466ZM271.094 36.8479C271.171 36.9211 271.263 36.9774 271.363 37.0132C271.462 37.0489 271.569 37.0633 271.675 37.0554C271.778 37.0631 271.882 37.0485 271.98 37.0127C272.078 36.977 272.167 36.9208 272.241 36.8479C272.307 36.7782 272.359 36.6955 272.392 36.6051C272.425 36.5147 272.44 36.4185 272.434 36.3223C272.443 36.1241 272.373 35.9305 272.241 35.7828C272.167 35.71 272.078 35.6538 271.98 35.618C271.882 35.5822 271.778 35.5677 271.675 35.5754C271.569 35.5675 271.462 35.5818 271.363 35.6176C271.263 35.6533 271.171 35.7096 271.094 35.7828C270.968 35.934 270.899 36.1252 270.901 36.3223C270.898 36.5155 270.967 36.703 271.094 36.8479ZM272.31 38.3279H271.011V45.9216H272.31V38.3279ZM264.394 35.1466H263.096V45.9216H264.394V40.458C264.564 40.1046 264.821 39.8001 265.14 39.5728C265.465 39.3496 265.852 39.2336 266.246 39.2408C266.453 39.2216 266.662 39.2461 266.86 39.3128C267.057 39.3795 267.239 39.4869 267.392 39.6281C267.668 39.9709 267.801 40.4067 267.765 40.8453V45.8663H269.064V40.8453C269.064 39.0472 268.235 38.0789 266.632 38.0789C266.202 38.0698 265.776 38.1613 265.387 38.3462C264.999 38.5311 264.659 38.8043 264.394 39.144V35.1466ZM260.112 42.6849C260.071 43.3509 259.792 43.9796 259.325 44.4554C258.824 44.8175 258.214 44.9936 257.598 44.9534C257.218 44.9699 256.841 44.8882 256.502 44.7161C256.163 44.5441 255.875 44.2876 255.664 43.9713C255.161 43.1856 254.919 42.2609 254.973 41.3294V40.3474C254.898 39.3689 255.156 38.3938 255.705 37.581C255.939 37.2705 256.245 37.0216 256.596 36.8553C256.948 36.6891 257.334 36.6106 257.722 36.6266C258.017 36.6065 258.313 36.6451 258.592 36.74C258.872 36.835 259.13 36.9845 259.352 37.1799C259.809 37.6598 260.079 38.2881 260.112 38.9503H261.493C261.439 38 261.035 37.1035 260.361 36.4329C259.639 35.8074 258.703 35.4853 257.75 35.5339C256.993 35.5224 256.248 35.7185 255.595 36.101C254.982 36.5071 254.502 37.0842 254.213 37.7608C253.857 38.5463 253.682 39.402 253.702 40.2644V41.2464C253.634 42.4979 254.022 43.7315 254.793 44.7182C255.141 45.1438 255.583 45.4828 256.084 45.7084C256.585 45.934 257.132 46.0401 257.681 46.0184C258.65 46.0663 259.604 45.7563 260.361 45.147C261.057 44.4918 261.481 43.5979 261.549 42.6434L260.112 42.6849ZM249.875 38.2864C249.695 38.2147 249.503 38.1818 249.309 38.1896C248.943 38.1797 248.581 38.2697 248.262 38.45C247.944 38.6303 247.68 38.8941 247.499 39.2131V38.2726H246.228V45.8663H247.527V40.4857C247.658 40.1407 247.897 39.8476 248.208 39.6505C248.52 39.4534 248.887 39.363 249.254 39.393C249.465 39.3778 249.678 39.3778 249.889 39.393L249.875 38.2864ZM239.625 40.0292C239.808 39.7884 240.044 39.5932 240.315 39.4589C240.586 39.3245 240.884 39.2546 241.186 39.2546C241.488 39.2546 241.787 39.3245 242.057 39.4589C242.328 39.5932 242.564 39.7884 242.747 40.0292C243.168 40.6206 243.378 41.3371 243.341 42.0625C243.386 42.83 243.182 43.5913 242.761 44.2341C242.577 44.4751 242.339 44.6703 242.067 44.8046C241.795 44.939 241.496 45.0089 241.193 45.0089C240.89 45.0089 240.591 44.939 240.319 44.8046C240.047 44.6703 239.81 44.4751 239.625 44.2341C239.213 43.6443 239.009 42.9337 239.045 42.2147C238.993 41.4421 239.196 40.6738 239.625 40.0292ZM237.733 42.1455C237.687 43.183 238.033 44.1997 238.7 44.9949C239.013 45.3449 239.399 45.6218 239.831 45.8058C240.264 45.9899 240.731 46.0766 241.2 46.0599C241.836 46.0693 242.463 45.9017 243.01 45.5758C243.537 45.2428 243.955 44.7618 244.212 44.1926C244.507 43.5759 244.654 42.8984 244.64 42.2147V42.1178C244.689 41.0822 244.349 40.0657 243.687 39.2685C243.373 38.914 242.985 38.6335 242.55 38.447C242.116 38.2604 241.645 38.1725 241.172 38.1896C240.545 38.1728 239.926 38.3407 239.394 38.6727C238.861 39.0046 238.437 39.4859 238.175 40.0569C237.875 40.6823 237.723 41.3688 237.733 42.0625V42.1455ZM235.301 45.9216V39.2823H236.918V38.2726H235.301V37.4427C235.275 37.0605 235.399 36.6832 235.647 36.3914C235.771 36.2632 235.922 36.1635 236.089 36.099C236.256 36.0346 236.435 36.0069 236.614 36.018C236.85 36.0191 237.086 36.0423 237.318 36.0871L237.387 35.0359C237.099 34.9584 236.801 34.9211 236.503 34.9253C236.166 34.9041 235.827 34.9521 235.509 35.0662C235.191 35.1804 234.899 35.3583 234.652 35.5892C234.425 35.8443 234.251 36.1419 234.139 36.4647C234.028 36.7876 233.981 37.1294 234.003 37.4703V38.2449H232.801V39.2546H234.003V45.8386L235.301 45.9216ZM227.344 39.8079C227.688 40.2406 227.878 40.7762 227.883 41.3294V41.4262H224.084C224.13 40.8388 224.362 40.2816 224.747 39.8356C224.91 39.648 225.112 39.4987 225.338 39.3983C225.565 39.2979 225.811 39.2488 226.059 39.2546C226.301 39.2436 226.543 39.2877 226.765 39.3835C226.988 39.4794 227.186 39.6245 227.344 39.8079ZM229.071 44.5937L228.284 43.9851C228.059 44.2829 227.777 44.5323 227.455 44.7182C227.102 44.9207 226.7 45.0212 226.294 45.0087C225.993 45.0161 225.694 44.9581 225.417 44.8387C225.141 44.7194 224.893 44.5414 224.692 44.3171C224.266 43.8104 224.035 43.1675 224.042 42.5051H229.168V41.9519C229.235 40.9618 228.946 39.9804 228.353 39.1855C228.082 38.8425 227.735 38.5685 227.339 38.3858C226.943 38.2031 226.509 38.1169 226.073 38.1343C225.475 38.1329 224.889 38.3059 224.388 38.6322C223.872 38.9781 223.457 39.4556 223.186 40.0154C222.889 40.6463 222.743 41.3376 222.758 42.0348V42.27C222.724 42.7726 222.793 43.2767 222.959 43.7521C223.125 44.2275 223.386 44.6644 223.725 45.0364C224.049 45.3724 224.441 45.6361 224.874 45.8101C225.307 45.9841 225.773 46.0645 226.239 46.0461C226.801 46.0786 227.361 45.9597 227.862 45.7019C228.362 45.444 228.785 45.0566 229.085 44.5799L229.071 44.5937ZM217.08 44.2756C216.683 43.6802 216.494 42.9703 216.541 42.2562V42.021C216.493 41.2937 216.682 40.5704 217.08 39.9601C217.257 39.7232 217.489 39.5336 217.757 39.4081C218.024 39.2827 218.318 39.2252 218.613 39.2408C219.068 39.2333 219.509 39.4018 219.843 39.7111C220.182 40.0284 220.385 40.4646 220.409 40.9283H221.625C221.618 40.5526 221.535 40.1823 221.381 39.8399C221.226 39.4974 221.004 39.1901 220.727 38.9365C220.143 38.4268 219.388 38.1554 218.613 38.1758C217.981 38.163 217.358 38.331 216.818 38.6599C216.299 38.9951 215.89 39.4763 215.643 40.0431C215.37 40.6662 215.234 41.3406 215.243 42.021V42.2423C215.203 43.2445 215.527 44.2272 216.154 45.0087C216.651 45.5245 217.299 45.8694 218.004 45.9936C218.709 46.1179 219.435 46.0152 220.078 45.7003C220.516 45.4798 220.895 45.1572 221.183 44.7597C221.45 44.3979 221.604 43.9645 221.625 43.5149H220.409C220.39 43.7205 220.328 43.92 220.228 44.1008C220.128 44.2816 219.993 44.44 219.829 44.5661C219.486 44.847 219.056 44.9987 218.613 44.9949C218.319 45.0081 218.025 44.9495 217.758 44.8243C217.491 44.699 217.258 44.5107 217.08 44.2756ZM207.7 38.3141V45.9078H208.999V40.458C209.169 40.1046 209.425 39.8001 209.745 39.5728C210.069 39.3496 210.456 39.2336 210.85 39.2408C211.057 39.2216 211.267 39.2461 211.464 39.3128C211.661 39.3795 211.843 39.4869 211.996 39.6281C212.272 39.9709 212.406 40.4067 212.369 40.8453V45.8663H213.64V40.8453C213.64 39.0472 212.811 38.0789 211.209 38.0789C210.772 38.0686 210.339 38.1623 209.945 38.3523C209.551 38.5422 209.208 38.823 208.943 39.1717V38.2173L207.7 38.3141ZM204.343 39.7941C204.687 40.2267 204.877 40.7624 204.882 41.3156V41.4124H201.083C201.129 40.825 201.361 40.2677 201.746 39.8217C201.909 39.6342 202.111 39.4849 202.337 39.3845C202.564 39.284 202.81 39.235 203.058 39.2408C203.3 39.2298 203.542 39.2739 203.764 39.3697C203.987 39.4655 204.185 39.6106 204.343 39.7941ZM206.07 44.5799L205.283 43.9713C205.058 44.2691 204.776 44.5185 204.454 44.7044C204.101 44.9068 203.699 45.0074 203.293 44.9949C202.992 45.0014 202.693 44.943 202.417 44.8236C202.14 44.7043 201.893 44.5268 201.691 44.3033C201.265 43.7966 201.034 43.1536 201.041 42.4913H206.18V41.938C206.244 40.9463 205.95 39.9646 205.352 39.1717C205.073 38.8394 204.72 38.5774 204.322 38.4068C203.924 38.2362 203.491 38.1618 203.058 38.1896C202.46 38.1882 201.875 38.3612 201.373 38.6875C200.857 39.0335 200.442 39.5109 200.171 40.0707C199.881 40.7038 199.735 41.3936 199.743 42.0902V42.3253C199.709 42.8279 199.778 43.332 199.944 43.8075C200.11 44.2829 200.371 44.7197 200.71 45.0917C201.034 45.4277 201.426 45.6914 201.859 45.8654C202.293 46.0394 202.758 46.1198 203.224 46.1014C203.786 46.1354 204.347 46.0172 204.848 45.7592C205.349 45.5012 205.771 45.113 206.07 44.6352V44.5799ZM198.071 35.1881H196.773V45.9631H198.071V35.1881ZM194.728 35.1881H193.43V45.9631H194.728V35.1881ZM190.004 39.8494C190.343 40.2839 190.528 40.8194 190.529 41.3709V41.4677H186.702C186.748 40.8803 186.981 40.3231 187.365 39.8771C187.536 39.6818 187.75 39.528 187.989 39.4274C188.228 39.3267 188.487 39.2818 188.747 39.2961C188.991 39.283 189.235 39.326 189.46 39.4219C189.685 39.5178 189.885 39.6641 190.045 39.8494H190.004ZM191.772 44.6352L190.985 44.0266C190.752 44.3214 190.466 44.5701 190.142 44.7597C189.789 44.9622 189.388 45.0627 188.981 45.0502C188.682 45.0584 188.385 45.0007 188.11 44.8812C187.836 44.7617 187.591 44.5833 187.393 44.3586C186.962 43.8539 186.726 43.2107 186.73 42.5466H191.869V41.9934C191.928 41.0043 191.639 40.0257 191.054 39.227C190.769 38.8986 190.413 38.6395 190.013 38.4693C189.614 38.2992 189.18 38.2224 188.747 38.2449C188.153 38.2438 187.572 38.4169 187.075 38.7429C186.559 39.0888 186.144 39.5662 185.873 40.1261C185.576 40.757 185.43 41.4483 185.445 42.1455V42.3806C185.413 42.882 185.481 43.3847 185.644 43.8597C185.808 44.3346 186.064 44.7722 186.398 45.147C186.723 45.4824 187.115 45.7455 187.548 45.9195C187.981 46.0934 188.446 46.1743 188.912 46.1567C189.476 46.1888 190.038 46.0699 190.541 45.8122C191.044 45.5545 191.468 45.1673 191.772 44.6906V44.6352ZM179.753 44.3863C179.357 43.7909 179.167 43.081 179.215 42.3668V42.1317C179.163 41.4021 179.358 40.6763 179.767 40.0707C179.93 39.8696 180.132 39.7032 180.36 39.5814C180.588 39.4596 180.839 39.3849 181.096 39.3616C181.354 39.3384 181.613 39.3672 181.86 39.4462C182.106 39.5253 182.334 39.6529 182.53 39.8217C182.859 40.1445 183.056 40.5785 183.083 41.039H184.312C184.305 40.6633 184.222 40.293 184.068 39.9505C183.914 39.6081 183.691 39.3007 183.414 39.0472C182.826 38.5354 182.066 38.2639 181.287 38.2864C180.654 38.2737 180.032 38.4416 179.491 38.7705C178.976 39.1066 178.572 39.5879 178.331 40.1537C178.047 40.7737 177.905 41.4496 177.916 42.1317V42.353C177.88 43.3569 178.209 44.3398 178.842 45.1193C179.149 45.4642 179.529 45.7362 179.954 45.9157C180.38 46.0951 180.84 46.1775 181.301 46.1567C181.809 46.1589 182.311 46.0404 182.765 45.8109C183.199 45.5904 183.574 45.2676 183.856 44.8704C184.122 44.5063 184.28 44.075 184.312 43.6255H183.083C183.066 43.8303 183.007 44.0294 182.909 44.2103C182.812 44.3911 182.678 44.5499 182.516 44.6767C182.171 44.9536 181.743 45.1049 181.301 45.1055C181.004 45.1198 180.708 45.0618 180.439 44.9366C180.169 44.8113 179.934 44.6225 179.753 44.3863ZM172.363 38.4247H170.816L173.302 42.187L170.746 46.0184H172.197L173.965 42.9754L175.72 45.8109H177.225L174.67 41.9795L177.143 38.2173H175.637L173.951 40.9836L172.363 38.4247ZM168.992 40.1952H164.571V36.7511H169.641V35.6584H163.231V45.8663H169.71V44.7597H164.571V41.1496H168.992V40.1952ZM157.291 46.0184V39.2823H158.908V38.2726H157.291V37.4427C157.265 37.0605 157.389 36.6832 157.637 36.3914C157.762 36.264 157.913 36.1647 158.08 36.1003C158.247 36.0359 158.425 36.0078 158.604 36.018C158.84 36.0191 159.076 36.0423 159.308 36.0871V35.0359C159.02 34.9584 158.722 34.9211 158.424 34.9253C158.087 34.9041 157.748 34.9521 157.43 35.0662C157.112 35.1804 156.82 35.3583 156.573 35.5892C156.346 35.8443 156.172 36.1419 156.06 36.4647C155.949 36.7876 155.902 37.1294 155.924 37.4703V38.2449H154.736V39.2546H155.924V45.8386L157.291 46.0184ZM149.003 40.1261C149.186 39.8853 149.422 39.6901 149.692 39.5557C149.963 39.4213 150.261 39.3514 150.564 39.3514C150.866 39.3514 151.164 39.4213 151.435 39.5557C151.706 39.6901 151.942 39.8853 152.125 40.1261C152.546 40.7174 152.755 41.4339 152.719 42.1593C152.763 42.9268 152.56 43.6881 152.138 44.3309C151.954 44.5719 151.717 44.7671 151.445 44.9015C151.173 45.0358 150.874 45.1057 150.571 45.1057C150.267 45.1057 149.968 45.0358 149.696 44.9015C149.424 44.7671 149.187 44.5719 149.003 44.3309C148.59 43.7411 148.386 43.0305 148.422 42.3115C148.37 41.5389 148.574 40.7706 149.003 40.1261ZM147.11 42.2423C147.065 43.2798 147.41 44.2965 148.077 45.0917C148.388 45.4407 148.772 45.717 149.202 45.901C149.632 46.0851 150.097 46.1724 150.564 46.1567C151.2 46.1676 151.827 45.9999 152.373 45.6726C152.905 45.3405 153.327 44.8596 153.589 44.2894C153.878 43.6705 154.024 42.9946 154.017 42.3115V42.2147C154.074 41.1756 153.727 40.1549 153.05 39.3653C152.739 39.0112 152.354 38.7307 151.921 38.5441C151.489 38.3575 151.02 38.2695 150.55 38.2864C149.922 38.2793 149.305 38.4469 148.768 38.7705C148.239 39.1063 147.818 39.5862 147.552 40.1537C147.252 40.7791 147.101 41.4656 147.11 42.1593V42.2423ZM141.432 39.9047C141.777 40.3374 141.966 40.8731 141.971 41.4262V41.5231H138.075C138.122 40.9357 138.354 40.3784 138.738 39.9324C138.91 39.7371 139.123 39.5833 139.362 39.4827C139.602 39.382 139.861 39.3372 140.12 39.3515C140.362 39.3405 140.603 39.3845 140.826 39.4804C141.048 39.5762 141.246 39.7213 141.405 39.9047H141.432ZM143.145 44.6906L142.344 44.082C142.12 44.3798 141.838 44.6291 141.515 44.8151C141.163 45.0175 140.761 45.118 140.355 45.1055C140.056 45.1137 139.758 45.056 139.484 44.9365C139.209 44.817 138.964 44.6386 138.766 44.4139C138.335 43.9092 138.1 43.2661 138.103 42.602H143.187V42.0487C143.25 41.0569 142.956 40.0753 142.358 39.2823C142.079 38.95 141.727 38.688 141.328 38.5174C140.93 38.3468 140.497 38.2724 140.065 38.3002C139.47 38.2967 138.889 38.47 138.393 38.7982C137.87 39.136 137.453 39.6157 137.191 40.1814C136.89 40.8113 136.739 41.5025 136.749 42.2008V42.436C136.72 42.9382 136.79 43.4413 136.956 43.9162C137.122 44.391 137.38 44.8282 137.716 45.2023C138.041 45.5384 138.432 45.802 138.866 45.976C139.299 46.15 139.764 46.2305 140.23 46.2121C140.794 46.2442 141.356 46.1252 141.859 45.8675C142.362 45.6098 142.786 45.2227 143.09 44.7459L143.145 44.6906ZM136.017 38.4386C135.837 38.3669 135.644 38.3339 135.451 38.3417C135.085 38.3318 134.723 38.4218 134.404 38.6021C134.085 38.7825 133.821 39.0463 133.641 39.3653V38.4801H132.384V46.0737H133.682V40.4857C133.811 40.1394 134.05 39.8449 134.362 39.6475C134.674 39.4501 135.042 39.3607 135.409 39.393C135.621 39.3778 135.833 39.3778 136.045 39.393L136.017 38.4386ZM128.267 36.6404V38.2726H126.886V39.2823H128.267V43.9851C128.226 44.5206 128.384 45.0523 128.709 45.479C128.872 45.6585 129.074 45.799 129.299 45.8899C129.523 45.9809 129.766 46.0201 130.008 46.0046C130.344 46.0063 130.679 45.9597 131.002 45.8663V44.8151C130.803 44.8628 130.599 44.8906 130.395 44.898C130.277 44.9116 130.157 44.8987 130.045 44.8605C129.933 44.8222 129.83 44.7594 129.745 44.6767C129.609 44.4785 129.545 44.2389 129.566 43.999V39.2823H130.947V38.2726H129.566V36.4329L128.267 36.6404ZM119.882 38.2726V45.8663H121.18V40.458C121.35 40.1046 121.607 39.8001 121.926 39.5728C122.251 39.3496 122.638 39.2336 123.031 39.2408C123.239 39.2233 123.448 39.2486 123.645 39.3153C123.842 39.3819 124.024 39.4884 124.178 39.6281C124.454 39.9709 124.587 40.4067 124.551 40.8453V45.8663H125.85V40.8453C125.85 39.0472 125.021 38.0789 123.418 38.0789C122.981 38.0686 122.548 38.1623 122.154 38.3523C121.76 38.5422 121.417 38.823 121.153 39.1717V38.2173L119.882 38.2726ZM116.525 39.7526C116.869 40.1852 117.059 40.7209 117.064 41.2741V41.3709H113.265C113.311 40.7835 113.543 40.2262 113.928 39.7803C114.098 39.5833 114.311 39.4284 114.55 39.3276C114.79 39.2268 115.05 39.1829 115.309 39.1993C115.551 39.1883 115.793 39.2324 116.015 39.3282C116.238 39.424 116.436 39.5691 116.594 39.7526H116.525ZM118.321 44.5384L117.52 43.9298C117.295 44.2276 117.013 44.477 116.691 44.6629C116.338 44.8653 115.936 44.9659 115.53 44.9534C115.229 44.9599 114.93 44.9015 114.654 44.7821C114.377 44.6628 114.13 44.4853 113.928 44.2618C113.502 43.7551 113.271 43.1121 113.279 42.4498H118.321V41.8965C118.384 40.9048 118.09 39.9232 117.492 39.1302C117.213 38.7979 116.861 38.5359 116.462 38.3653C116.064 38.1947 115.631 38.1203 115.199 38.1481C114.605 38.1445 114.023 38.3179 113.527 38.646C113.003 38.9869 112.583 39.4654 112.312 40.0292C112.015 40.6602 111.868 41.3514 111.883 42.0487V42.2838C111.85 42.7864 111.918 43.2905 112.084 43.766C112.251 44.2414 112.511 44.6782 112.85 45.0502C113.175 45.3862 113.566 45.6499 114 45.8239C114.433 45.9979 114.898 46.0783 115.364 46.0599C115.949 46.1027 116.535 45.9834 117.056 45.715C117.578 45.4466 118.015 45.0395 118.321 44.5384ZM109.272 42.6296C109.195 43.2878 108.893 43.8989 108.416 44.3586C107.922 44.723 107.315 44.8995 106.703 44.8565C106.323 44.873 105.946 44.7913 105.607 44.6193C105.269 44.4473 104.98 44.1908 104.769 43.8745C104.261 43.0904 104.015 42.1656 104.064 41.2326V40.2505C103.997 39.2728 104.254 38.3001 104.796 37.4842C105.033 37.1726 105.341 36.9231 105.695 36.7568C106.048 36.5906 106.437 36.5127 106.827 36.5298C107.422 36.4923 108.008 36.6911 108.457 37.083C108.905 37.5688 109.173 38.1937 109.217 38.8535H110.599C110.539 37.9017 110.131 37.0053 109.452 36.3361C108.736 35.7088 107.804 35.3862 106.855 35.4371C106.094 35.423 105.343 35.6192 104.686 36.0042C104.076 36.4139 103.597 36.9899 103.305 37.664C102.92 38.4577 102.718 39.3271 102.71 40.209V41.1911C102.648 42.4417 103.036 43.6733 103.802 44.6629C104.153 45.088 104.598 45.4263 105.101 45.6518C105.604 45.8772 106.152 45.9838 106.703 45.9631C107.668 46.0115 108.618 45.7012 109.369 45.0917C110.075 44.4421 110.505 43.546 110.571 42.5881L109.272 42.6296ZM97.24 42.6296C97.1747 43.2883 96.8757 43.9018 96.3973 44.3586C95.8971 44.7207 95.2864 44.8968 94.6705 44.8565C94.291 44.873 93.9137 44.7913 93.5749 44.6193C93.2362 44.4473 92.9474 44.1908 92.7365 43.8745C92.2339 43.0888 91.9921 42.1641 92.0458 41.2326V40.2505C91.9707 39.2721 92.2287 38.297 92.7779 37.4842C93.0249 37.1829 93.3413 36.9462 93.6998 36.7944C94.0583 36.6426 94.4483 36.5803 94.8363 36.6128C95.131 36.5927 95.4268 36.6313 95.7066 36.7262C95.9863 36.8212 96.2446 36.9706 96.4664 37.166C96.9144 37.6518 97.1826 38.2767 97.2262 38.9365H98.6076C98.5546 37.983 98.1453 37.0844 97.461 36.4191C96.7385 35.7849 95.7953 35.4619 94.8363 35.52C94.0797 35.5086 93.3344 35.7047 92.6812 36.0871C92.0728 36.498 91.5937 37.0737 91.2998 37.747C90.9227 38.5144 90.7154 39.3541 90.6919 40.209V41.1911C90.6237 42.4425 91.0115 43.6762 91.7833 44.6629C92.1313 45.0885 92.5731 45.4274 93.0741 45.653C93.5751 45.8787 94.1216 45.9848 94.6705 45.9631C95.6403 46.011 96.5939 45.7009 97.3505 45.0917C98.0469 44.4365 98.4711 43.5426 98.5385 42.5881L97.24 42.6296ZM83.5223 36.7511H85.5806C86.1678 36.7199 86.7465 36.9016 87.2107 37.2629C87.4067 37.4508 87.559 37.6795 87.6568 37.9328C87.7547 38.1862 87.7958 38.458 87.7771 38.729C87.7887 38.9895 87.7412 39.2492 87.6384 39.4888C87.5355 39.7283 87.3799 39.9414 87.1831 40.1122C86.7372 40.4791 86.1708 40.6665 85.5944 40.6378H83.5223V36.7511ZM88.1363 45.8663H89.5177V45.7418L87.1831 41.4539C87.7345 41.2361 88.2133 40.867 88.5645 40.3889C88.9085 39.9049 89.0877 39.3229 89.0757 38.729C89.1101 38.3006 89.0444 37.8701 88.8838 37.4715C88.7231 37.073 88.4719 36.7174 88.1501 36.4329C87.3805 35.8786 86.4443 35.6052 85.4977 35.6584H82.1685V45.8663H83.5499V41.7167H85.9536L88.1363 45.8663ZM76.1868 37.3182L77.9274 42.0902H74.46L76.1868 37.3182ZM79.2951 45.8663H80.6765L76.7808 35.6584H75.6066L71.7109 45.8663H73.0924L74.0594 43.1967H78.328L79.2951 45.8663Z" fill="#3A5C7F"/>
<path d="M299.289 10.6085C299.762 11.1728 300.013 11.8912 299.994 12.628V12.9461H294.551C294.616 12.1162 294.94 11.3277 295.476 10.6915C295.713 10.426 296.005 10.2164 296.333 10.0776C296.66 9.93892 297.014 9.87458 297.369 9.88925C297.721 9.86992 298.074 9.92385 298.404 10.0476C298.735 10.1714 299.036 10.3624 299.289 10.6085ZM301.14 21.259C302.094 20.8298 302.918 20.1572 303.53 19.3087L301.596 17.151C301.188 17.6928 300.654 18.1262 300.039 18.4132C299.425 18.7001 298.75 18.8319 298.073 18.797C297.185 18.8301 296.319 18.5178 295.656 17.9256C294.999 17.3257 294.59 16.5018 294.509 15.6156H303.834V14.0111C303.946 12.0558 303.309 10.1315 302.052 8.63055C301.451 7.99593 300.72 7.49826 299.909 7.17129C299.099 6.84433 298.228 6.69574 297.355 6.73559C296.104 6.72008 294.872 7.04518 293.791 7.67615C292.742 8.31662 291.902 9.24903 291.373 10.3595C290.789 11.5952 290.496 12.9486 290.517 14.3154V14.7027C290.473 15.674 290.63 16.6439 290.98 17.551C291.33 18.4581 291.863 19.2827 292.548 19.9727C293.246 20.6367 294.071 21.1539 294.972 21.4936C295.874 21.8333 296.834 21.9887 297.797 21.9506C298.944 21.9638 300.08 21.7279 301.126 21.259H301.14ZM289.218 6.9154C288.825 6.79099 288.415 6.73028 288.003 6.73559C287.325 6.73441 286.661 6.92288 286.085 7.27973C285.509 7.63657 285.044 8.14758 284.742 8.75504L284.632 7.01223H280.93V21.6878H284.853V12.0747C285.125 11.5567 285.548 11.1345 286.067 10.8649C286.586 10.5954 287.174 10.4914 287.754 10.567C288.216 10.5749 288.678 10.6119 289.135 10.6777L289.218 6.9154ZM272.337 3.40211V7.01223H270.196V9.87542H272.337V17.7872C272.392 20.5536 273.774 21.9368 276.481 21.9368C277.282 21.9403 278.078 21.8237 278.844 21.591V18.631C278.465 18.6951 278.081 18.7275 277.697 18.7278C277.485 18.7532 277.27 18.7344 277.065 18.6725C276.861 18.6106 276.672 18.507 276.509 18.3682C276.263 18.0338 276.15 17.6197 276.191 17.2063V9.87542H278.692V7.01223H276.191V3.40211H272.337ZM255.939 7.01223V21.6878H259.863V11.3278C260.103 10.8879 260.463 10.5248 260.9 10.2802C261.338 10.0356 261.835 9.91924 262.335 9.94458C262.658 9.91321 262.983 9.94727 263.291 10.0447C263.6 10.1422 263.885 10.301 264.131 10.5117C264.547 11.0192 264.745 11.6704 264.684 12.3237V21.7155H268.593V12.1992C268.7 10.7229 268.29 9.25556 267.433 8.04962C266.997 7.57118 266.459 7.19807 265.858 6.95845C265.258 6.71884 264.61 6.61899 263.966 6.66643C263.158 6.63599 262.355 6.79822 261.622 7.13972C260.89 7.48122 260.249 7.99221 259.752 8.63055L259.628 7.01223H255.939ZM249.253 10.6085C249.739 11.166 249.991 11.8892 249.958 12.628V12.9461H244.515C244.591 12.1187 244.913 11.3333 245.44 10.6915C245.677 10.426 245.969 10.2164 246.297 10.0776C246.624 9.93892 246.978 9.87458 247.333 9.88925C247.685 9.86992 248.038 9.92385 248.368 10.0476C248.699 10.1714 249 10.3624 249.253 10.6085ZM251.104 21.259C252.058 20.8298 252.882 20.1572 253.494 19.3087L251.574 17.151C251.159 17.6886 250.621 18.1187 250.006 18.4051C249.391 18.6915 248.715 18.8259 248.038 18.797C247.15 18.8301 246.283 18.5178 245.62 17.9256C244.969 17.3217 244.561 16.5 244.473 15.6156H253.798V14.0111C253.925 12.0632 253.308 10.1396 252.071 8.63055C251.467 7.99156 250.732 7.49126 249.917 7.16412C249.101 6.83698 248.224 6.69078 247.347 6.73559C246.091 6.71757 244.854 7.04275 243.769 7.67615C242.72 8.31662 241.88 9.24903 241.351 10.3595C240.767 11.5952 240.474 12.9486 240.495 14.3154V14.7027C240.451 15.674 240.608 16.6439 240.958 17.551C241.308 18.4581 241.841 19.2827 242.526 19.9727C243.224 20.6367 244.049 21.1539 244.95 21.4936C245.852 21.8333 246.812 21.9887 247.775 21.9506C248.922 21.9638 250.058 21.7279 251.104 21.259ZM234.527 15.1039C234.528 16.0974 234.147 17.0531 233.463 17.7734C232.679 18.3902 231.695 18.6956 230.7 18.631C230.106 18.6751 229.511 18.5614 228.975 18.3016C228.439 18.0417 227.981 17.6448 227.647 17.151C226.891 15.715 226.551 14.0954 226.667 12.4758V10.982C226.575 9.40632 226.935 7.83731 227.703 6.45895C228.046 5.97558 228.506 5.58743 229.04 5.33097C229.574 5.07451 230.164 4.95813 230.756 4.99278C231.754 4.91687 232.744 5.22893 233.519 5.86418C234.201 6.62372 234.58 7.60875 234.582 8.63055H238.644C238.546 6.6706 237.682 4.82772 236.24 3.49894C234.843 2.4391 233.166 1.81373 231.418 1.7006C229.669 1.58748 227.925 1.99158 226.404 2.86267C225.138 3.66094 224.142 4.82257 223.545 6.19615C222.847 7.77636 222.503 9.48991 222.536 11.2171V12.4205C222.378 14.9513 223.144 17.4533 224.691 19.4609C225.426 20.3141 226.345 20.9881 227.379 21.4316C228.414 21.875 229.535 22.0762 230.659 22.0198C232.661 22.0998 234.624 21.4512 236.185 20.194C236.898 19.5619 237.474 18.7903 237.878 17.9268C238.282 17.0633 238.505 16.1261 238.533 15.173L234.527 15.1039ZM209.205 10.6085C209.679 11.1728 209.929 11.8912 209.91 12.628V12.9461H204.384C204.464 12.1172 204.791 11.3316 205.323 10.6915C205.558 10.4271 205.848 10.218 206.173 10.0793C206.498 9.94058 206.849 9.87567 207.202 9.88925C207.557 9.86883 207.911 9.9222 208.244 10.046C208.577 10.1698 208.881 10.3613 209.136 10.6085H209.205ZM210.987 21.259C211.941 20.8298 212.765 20.1572 213.377 19.3087L211.443 17.151C211.034 17.6948 210.497 18.1294 209.88 18.4165C209.264 18.7036 208.586 18.8342 207.907 18.797C207.019 18.8272 206.154 18.5153 205.489 17.9256C204.842 17.3186 204.435 16.4986 204.343 15.6156H213.681V14.0111C213.801 12.064 213.185 10.143 211.954 8.63055C211.356 7.99953 210.63 7.50397 209.824 7.17713C209.019 6.85029 208.153 6.69974 207.285 6.73559C206.034 6.72008 204.802 7.04518 203.721 7.67615C202.672 8.31662 201.832 9.24903 201.303 10.3595C200.719 11.5952 200.426 12.9486 200.447 14.3154V14.7027C200.403 15.674 200.56 16.6439 200.91 17.551C201.26 18.4581 201.793 19.2827 202.478 19.9727C203.176 20.6374 204 21.155 204.902 21.4947C205.804 21.8345 206.764 21.9895 207.727 21.9506C208.874 21.9625 210.009 21.7266 211.056 21.259H210.987ZM194.078 18.7416C193.573 19.0654 192.977 19.2159 192.379 19.1704C191.695 19.2091 191.018 19.014 190.459 18.6171C190.215 18.4275 190.019 18.184 189.885 17.9056C189.75 17.6273 189.682 17.3217 189.685 17.0127H186.011C186.01 17.9042 186.296 18.7724 186.826 19.4886C187.399 20.2799 188.171 20.9051 189.064 21.3005C190.097 21.7478 191.213 21.9694 192.338 21.9506C193.915 22.0192 195.473 21.5832 196.786 20.7058C197.31 20.3478 197.737 19.8641 198.026 19.2987C198.316 18.7333 198.459 18.1043 198.444 17.4691C198.445 16.5579 198.141 15.6727 197.58 14.9554C197.019 14.238 196.233 13.7301 195.349 13.5132C194.541 13.2396 193.715 13.0224 192.877 12.8631C192.151 12.7543 191.45 12.5203 190.804 12.1715C190.618 12.0738 190.461 11.9294 190.347 11.7524C190.233 11.5754 190.167 11.3719 190.155 11.1618C190.147 10.9413 190.192 10.722 190.285 10.5223C190.379 10.3226 190.519 10.1482 190.694 10.0137C191.139 9.69464 191.681 9.53838 192.227 9.57112C192.533 9.5448 192.841 9.5802 193.133 9.67524C193.425 9.77028 193.695 9.92301 193.926 10.1244C194.105 10.3063 194.245 10.5227 194.338 10.7605C194.431 10.9983 194.474 11.2525 194.465 11.5076H198.444C198.457 10.8459 198.313 10.1906 198.022 9.59624C197.731 9.00192 197.303 8.48585 196.772 8.09111C195.485 7.13642 193.911 6.64865 192.31 6.70793C190.783 6.65874 189.287 7.1483 188.083 8.09111C187.575 8.46677 187.163 8.95678 186.88 9.52148C186.597 10.0862 186.451 10.7097 186.453 11.3416C186.453 13.5824 188.207 15.0624 191.689 15.7955C192.48 15.9257 193.248 16.1728 193.968 16.5285C194.18 16.633 194.36 16.7942 194.487 16.9943C194.613 17.1945 194.682 17.4258 194.686 17.6628C194.685 17.8822 194.632 18.0982 194.531 18.2931C194.43 18.4879 194.285 18.6559 194.106 18.7831L194.078 18.7416ZM184.919 6.9569C184.522 6.83241 184.107 6.77172 183.69 6.77708C183.013 6.7775 182.349 6.96663 181.773 7.3233C181.198 7.67997 180.732 8.19009 180.43 8.79654L180.292 7.01223H176.603V21.6878H180.485V12.0747C180.761 11.5569 181.187 11.1353 181.708 10.866C182.228 10.5967 182.819 10.4924 183.4 10.567C183.862 10.5758 184.323 10.6128 184.781 10.6777L184.919 6.9569ZM169.958 21.6878H173.647V7.01223H169.71V17.4138C169.439 17.8936 169.032 18.2817 168.539 18.5281C168.047 18.7745 167.493 18.8682 166.947 18.797C165.565 18.797 164.861 18.0224 164.861 16.5009V7.01223H160.951V16.6945C160.863 18.1305 161.317 19.5472 162.222 20.6643C162.687 21.1386 163.249 21.5075 163.868 21.7461C164.488 21.9847 165.151 22.0875 165.814 22.0475C166.572 22.0861 167.329 21.9474 168.024 21.6425C168.72 21.3376 169.335 20.8748 169.82 20.2908L169.958 21.6878ZM149.485 11.0096C149.73 10.6485 150.063 10.356 150.452 10.1599C150.841 9.96383 151.274 9.87065 151.71 9.88925C152.148 9.87371 152.583 9.96958 152.974 10.1679C153.366 10.3662 153.701 10.6606 153.948 11.0235C154.539 11.9745 154.819 13.0867 154.749 14.2048C154.847 15.426 154.567 16.6479 153.948 17.7042C153.691 18.0558 153.355 18.3418 152.968 18.5389C152.58 18.7361 152.151 18.8388 151.717 18.8388C151.282 18.8388 150.853 18.7361 150.465 18.5389C150.078 18.3418 149.742 18.0558 149.485 17.7042C148.905 16.7344 148.635 15.6096 148.712 14.4814C148.626 13.2717 148.9 12.0637 149.499 11.0096H149.485ZM144.789 14.3846C144.679 16.4048 145.358 18.3886 146.681 19.9173C148.042 21.2226 149.853 21.9513 151.737 21.9513C153.621 21.9513 155.433 21.2226 156.793 19.9173C158.1 18.4225 158.778 16.4795 158.686 14.4953V13.4855C158.634 11.633 157.884 9.86862 156.586 8.54756C155.94 7.94039 155.18 7.4676 154.35 7.15657C153.52 6.84554 152.637 6.70245 151.751 6.73559C150.464 6.70901 149.193 7.03417 148.076 7.67615C147.026 8.29659 146.185 9.21638 145.659 10.318C145.084 11.5319 144.796 12.8617 144.816 14.2048L144.789 14.3846ZM138.931 15.1039C138.926 16.0963 138.546 17.05 137.868 17.7734C137.084 18.3902 136.1 18.6956 135.105 18.631C134.509 18.6747 133.912 18.561 133.374 18.3013C132.836 18.0416 132.375 17.6449 132.038 17.151C131.293 15.7112 130.958 14.0936 131.071 12.4758V10.982C130.98 9.40632 131.339 7.83731 132.107 6.45895C132.447 5.97572 132.905 5.58742 133.436 5.33084C133.968 5.07426 134.557 4.9579 135.146 4.99278C136.145 4.9183 137.133 5.2302 137.909 5.86418C138.592 6.62372 138.97 7.60875 138.973 8.63055H143.034C142.931 6.66895 142.063 4.8263 140.617 3.49894C139.218 2.43166 137.536 1.80189 135.781 1.68869C134.026 1.57549 132.277 1.98391 130.753 2.86267C129.487 3.66094 128.491 4.82257 127.894 6.19615C127.203 7.7584 126.863 9.4536 126.899 11.1618V12.3652C126.735 14.9181 127.512 17.4426 129.082 19.4609C129.816 20.3141 130.736 20.9881 131.77 21.4316C132.804 21.875 133.926 22.0762 135.049 22.0198C137.051 22.0998 139.014 21.4512 140.575 20.194C141.288 19.5619 141.864 18.7903 142.268 17.9268C142.672 17.0633 142.895 16.1261 142.924 15.173L138.931 15.1039ZM113.568 10.6085C114.042 11.1715 114.289 11.892 114.259 12.628V12.9461H108.816C108.892 12.1187 109.214 11.3333 109.741 10.6915C109.979 10.4268 110.271 10.2176 110.598 10.079C110.925 9.94032 111.279 9.87554 111.634 9.88925C111.988 9.86967 112.343 9.92342 112.676 10.0472C113.009 10.1709 113.312 10.362 113.568 10.6085ZM115.419 21.259C116.369 20.8294 117.188 20.1567 117.795 19.3087L115.875 17.151C115.461 17.6895 114.923 18.1202 114.308 18.4067C113.692 18.6932 113.017 18.8271 112.339 18.797C111.451 18.8272 110.586 18.5153 109.921 17.9256C109.274 17.3186 108.867 16.4986 108.774 15.6156H118.113V14.0111C118.233 12.064 117.617 10.143 116.386 8.63055C115.78 7.99122 115.042 7.49085 114.224 7.16376C113.406 6.83667 112.527 6.69061 111.648 6.73559C110.396 6.71443 109.162 7.03992 108.084 7.67615C107.032 8.31284 106.191 9.2463 105.666 10.3595C105.082 11.5952 104.789 12.9486 104.81 14.3154V14.7027C104.766 15.674 104.923 16.6439 105.273 17.551C105.622 18.4581 106.156 19.2827 106.84 19.9727C107.539 20.6374 108.363 21.155 109.265 21.4947C110.166 21.8345 111.127 21.9895 112.09 21.9506C113.236 21.9625 114.372 21.7266 115.419 21.259ZM100.361 21.6878V9.87542H103.276V7.01223H100.361V5.82269C100.361 4.4395 101.107 3.74791 102.572 3.74791C102.976 3.74075 103.379 3.78255 103.774 3.8724V0.829388C103.118 0.668098 102.446 0.57996 101.77 0.566583C100.323 0.49109 98.9044 0.987825 97.8196 1.94977C97.3354 2.45681 96.9625 3.05955 96.7246 3.71935C96.4867 4.37915 96.3891 5.08144 96.4381 5.78119V7.01223H94.2831V9.87542H96.4657V21.6878H100.361ZM88.6192 4.67464C89.0678 5.04087 89.629 5.24087 90.2078 5.24087C90.7867 5.24087 91.3478 5.04087 91.7965 4.67464C91.9962 4.48767 92.1537 4.26015 92.2586 4.0073C92.3634 3.75445 92.4131 3.4821 92.4043 3.20847C92.4025 2.94988 92.3491 2.69426 92.2471 2.4567C92.145 2.21914 91.9965 2.00444 91.8103 1.82528C91.3706 1.43391 90.7955 1.23036 90.2078 1.25818C89.6197 1.22735 89.0435 1.43129 88.6053 1.82528C88.233 2.18991 88.0195 2.68703 88.0113 3.20847C88.0025 3.4821 88.0522 3.75445 88.157 4.0073C88.2619 4.26015 88.4194 4.48767 88.6192 4.67464ZM92.1695 7.01223H88.2462V21.6878H92.1695V7.01223ZM77.3466 1.93594H73.2852V21.6878H85.9668V18.4097H77.3466V1.93594Z" fill="#3A5C7F"/>
</g>
<defs>
<clipPath id="clip0_529_5554">
<rect width="304" height="64" fill="white"/>
</clipPath>
</defs>
</svg>
